<svg width="62" height="62" viewBox="0 0 62 62" fill="none" xmlns="http://www.w3.org/2000/svg">
<path fill-rule="evenodd" clip-rule="evenodd" d="M12 0C5.37258 0 0 5.37258 0 12V50C0 56.6274 5.37258 62 12 62H24.8792L8.43198 23.5499L27.2743 15.49C38.118 10.8516 47.0045 14.278 51.0644 23.7692C53.8574 30.2987 52.8741 36.3194 48.4382 40.9756L61.8992 51.5627C61.9657 51.0512 62 50.5296 62 50V12C62 5.37258 56.6274 0 50 0H12ZM58.2048 58.7568L55.3756 59.967L39.0856 46.9072L31.7166 50.0594L36.8242 62H50C53.1733 62 56.0589 60.7683 58.2048 58.7568ZM22.0606 27.4859L28.2452 41.9441L35.1012 39.0114C40.8845 36.5376 42.6887 32.952 40.6638 28.2181C38.6289 23.4608 34.6999 22.0793 28.87 24.5731L22.0606 27.4859Z" fill="black"/>
</svg>
